{
  "accessors": [
    {
      "bufferView": 1,
      "componentType": 5126,
      "count": 1266,
      "max": [
        0.8148177266120911,
        0.4651477634906769,
        1.1108332872390747
      ],
      "min": [
        -0.36460477113723755,
        0.0,
        -1.1125003099441528
      ],
      "type": "VEC3"
    },
    {
      "bufferView": 1,
      "byteOffset": 15192,
      "componentType": 5126,
      "count": 1266,
      "max": [
        1.0,
        1.0,
        0.9849382042884827
      ],
      "min": [
        -1.0,
        -1.0,
        -0.999949038028717
      ],
      "type": "VEC3"
    },
    {
      "bufferView": 0,
      "componentType": 5125,
      "count": 2544,
      "type": "SCALAR"
    },
    {
      "bufferView": 1,
      "byteOffset": 30384,
      "componentType": 5126,
      "count": 832,
      "max": [
        0.5458333492279053,
        0.4651477634906769,
        1.1108332872390747
      ],
      "min": [
        -1.4391666650772095,
        0.0,
        0.40277767181396484
      ],
      "type": "VEC3"
    },
    {
      "bufferView": 1,
      "byteOffset": 40368,
      "componentType": 5126,
      "count": 832,
      "max": [
        0.9999932050704956,
        1.0,
        0.9999361634254456
      ],
      "min": [
        -0.9991796016693115,
        -1.0,
        -0.9999291896820068
      ],
      "type": "VEC3"
    },
    {
      "bufferView": 0,
      "byteOffset": 10176,
      "componentType": 5125,
      "count": 1650,
      "type": "SCALAR"
    },
    {
      "bufferView": 1,
      "byteOffset": 50352,
      "componentType": 5126,
      "count": 54,
      "max": [
        1.1874760389328003,
        0.4651477634906769,
        0.95416659116745
      ],
      "min": [
        -1.1877700090408325,
        0.0,
        0.18083322048187256
      ],
      "type": "VEC3"
    },
    {
      "bufferView": 1,
      "byteOffset": 51000,
      "componentType": 5126,
      "count": 54,
      "max": [
        0.398115336894989,
        1.0,
        0.9430291056632996
      ],
      "min": [
        -0.3425057530403137,
        -1.0,
        -0.9423219561576843
      ],
      "type": "VEC3"
    },
    {
      "bufferView": 0,
      "byteOffset": 16776,
      "componentType": 5125,
      "count": 78,
      "type": "SCALAR"
    },
    {
      "bufferView": 1,
      "byteOffset": 51648,
      "componentType": 5126,
      "count": 1238,
      "max": [
        1.4397915601730347,
        0.4651477634906769,
        0.7241964340209961
      ],
      "min": [
        -0.565833330154419,
        0.0,
        0.11205457150936127
      ],
      "type": "VEC3"
    },
    {
      "bufferView": 1,
      "byteOffset": 66504,
      "componentType": 5126,
      "count": 1238,
      "max": [
        0.9963811039924622,
        1.0,
        0.9999982118606567
      ],
      "min": [
        -0.999876856803894,
        -1.0,
        -0.9999704360961914
      ],
      "type": "VEC3"
    },
    {
      "bufferView": 0,
      "byteOffset": 17088,
      "componentType": 5125,
      "count": 2460,
      "type": "SCALAR"
    }
  ],
  "asset": {
    "extras": {
      "author": "Piterus13 (https://sketchfab.com/piotrekmiratynski)",
      "license": "CC-BY-4.0 (http://creativecommons.org/licenses/by/4.0/)",
      "source": "https://sketchfab.com/3d-models/psplaystation-logo-700464e8aa974559ac0959f848fd8129",
      "title": "Ps/PlayStation Logo"
    },
    "generator": "Sketchfab-16.72.0",
    "version": "2.0"
  },
  "bufferViews": [
    {
      "buffer": 0,
      "byteLength": 26928,
      "name": "floatBufferViews",
      "target": 34963
    },
    {
      "buffer": 0,
      "byteLength": 81360,
      "byteOffset": 26928,
      "byteStride": 12,
      "name": "floatBufferViews",
      "target": 34962
    }
  ],
  "buffers": [
    {
      "byteLength": 108288,
      "uri": "scene.bin"
    }
  ],
  "materials": [
    {
      "doubleSided": true,
      "name": "Material.001",
      "pbrMetallicRoughness": {
        "baseColorFactor": [
          0.737907,
          0.0,
          0.017642,
          1.0
        ],
        "metallicFactor": 0.0
      }
    },
    {
      "doubleSided": true,
      "name": "Material.002",
      "pbrMetallicRoughness": {
        "baseColorFactor": [
          0.896264,
          0.545725,
          0.0,
          1.0
        ],
        "metallicFactor": 0.0
      }
    },
    {
      "doubleSided": true,
      "name": "Material.003",
      "pbrMetallicRoughness": {
        "baseColorFactor": [
          0.0,
          0.412543,
          0.346704,
          1.0
        ],
        "metallicFactor": 0.0
      }
    },
    {
      "doubleSided": true,
      "name": "Material.004",
      "pbrMetallicRoughness": {
        "baseColorFactor": [
          0.0273203,
          0.152926,
          0.456411,
          1.0
        ],
        "metallicFactor": 0.0
      }
    }
  ],
  "meshes": [
    {
      "name": "Object_0",
      "primitives": [
        {
          "attributes": {
            "NORMAL": 1,
            "POSITION": 0
          },
          "indices": 2,
          "material": 0,
          "mode": 4
        }
      ]
    },
    {
      "name": "Object_1",
      "primitives": [
        {
          "attributes": {
            "NORMAL": 4,
            "POSITION": 3
          },
          "indices": 5,
          "material": 1,
          "mode": 4
        }
      ]
    },
    {
      "name": "Object_2",
      "primitives": [
        {
          "attributes": {
            "NORMAL": 7,
            "POSITION": 6
          },
          "indices": 8,
          "material": 2,
          "mode": 4
        }
      ]
    },
    {
      "name": "Object_3",
      "primitives": [
        {
          "attributes": {
            "NORMAL": 10,
            "POSITION": 9
          },
          "indices": 11,
          "material": 3,
          "mode": 4
        }
      ]
    }
  ],
  "nodes": [
    {
      "children": [
        1
      ],
      "matrix": [
        1.0,
        0.0,
        0.0,
        0.0,
        0.0,
        2.220446049250313e-16,
        -1.0,
        0.0,
        0.0,
        1.0,
        2.220446049250313e-16,
        0.0,
        0.0,
        0.0,
        0.0,
        1.0
      ],
      "name": "Sketchfab_model"
    },
    {
      "children": [
        2
      ],
      "name": "root"
    },
    {
      "children": [
        3
      ],
      "matrix": [
        1.0,
        0.0,
        0.0,
        0.0,
        0.0,
        2.220446049250313e-16,
        1.0,
        0.0,
        0.0,
        -1.0,
        2.220446049250313e-16,
        0.0,
        0.0,
        0.0,
        0.0,
        1.0
      ],
      "name": "GLTF_SceneRootNode"
    },
    {
      "children": [
        4,
        5,
        6,
        7
      ],
      "matrix": [
        2.0,
        0.0,
        0.0,
        0.0,
        0.0,
        1.0,
        0.0,
        0.0,
        0.0,
        0.0,
        2.0,
        0.0,
        0.0,
        0.0,
        -0.05469156801700592,
        1.0
      ],
      "name": "GreasePencil.001_0"
    },
    {
      "mesh": 0,
      "name": "Object_4"
    },
    {
      "mesh": 1,
      "name": "Object_5"
    },
    {
      "mesh": 2,
      "name": "Object_6"
    },
    {
      "mesh": 3,
      "name": "Object_7"
    }
  ],
  "scene": 0,
  "scenes": [
    {
      "name": "Sketchfab_Scene",
      "nodes": [
        0
      ]
    }
  ]
}
